<svg width="15" height="17" viewBox="0 0 15 17" fill="none" xmlns="http://www.w3.org/2000/svg">
<path d="M6.82416 0.0485106C5.90108 0.2251 5.19071 0.602358 4.58067 1.2445C4.06295 1.7823 3.73786 2.3522 3.55325 3.0425C3.47298 3.33548 3.46094 3.47595 3.46094 4.06592C3.46094 4.81642 3.5091 5.06525 3.75793 5.66325C4.02281 6.29736 4.62081 7.0278 5.19874 7.4171C6.39874 8.22379 7.90778 8.34419 9.20009 7.74218C9.66163 7.52546 9.99073 7.29268 10.364 6.91944C10.8897 6.39368 11.2269 5.80371 11.4315 5.05722C11.5479 4.63582 11.56 3.52411 11.4516 3.12277C11.1024 1.85052 10.3078 0.883296 9.18404 0.365568C8.50979 0.0525236 7.50644 -0.0799179 6.82416 0.0485106Z" fill="#CFCFCF"/>
<path d="M4.07367 9.484C3.18269 9.64855 2.32784 10.0619 1.67767 10.6439C0.714457 11.5067 0.160609 12.5863 0.0241535 13.8787C-0.0440742 14.5208 0.0281669 14.9462 0.293051 15.4519C0.557935 15.9616 1.09573 16.4031 1.64958 16.5797L1.93052 16.668H7.48906H13.0476L13.3446 16.5716C14.2436 16.2787 14.8617 15.492 14.974 14.5128C15.0062 14.2078 14.9339 13.5415 14.8095 13.076C14.4242 11.6071 13.3085 10.3388 11.9199 9.78099C11.7513 9.71276 11.4382 9.60841 11.2255 9.55222L10.8402 9.44386L7.60947 9.43584C4.99675 9.43182 4.3225 9.43985 4.07367 9.484Z" fill="#CFCFCF"/>
</svg>
