<svg width="23" height="18" viewBox="0 0 23 18" fill="none" xmlns="http://www.w3.org/2000/svg">
<path d="M11.6694 7.23643C11.6694 7.90061 11.264 8.2829 10.5496 8.2829H9.61125V6.18997H10.5535C11.264 6.18997 11.6694 6.5684 11.6694 7.23643ZM13.5036 9.65373C13.5036 9.97423 13.7817 10.1828 14.218 10.1828C14.7741 10.1828 15.1911 9.83136 15.1911 9.33708V9.03975L14.2837 9.09767C13.7701 9.13243 13.5036 9.32164 13.5036 9.65373ZM22.2422 1.85352V15.446C22.2422 16.4693 21.412 17.2995 20.3887 17.2995H1.85352C0.830221 17.2995 0 16.4693 0 15.446V1.85352C0 0.830221 0.830221 0 1.85352 0H20.3887C21.412 0 22.2422 0.830221 22.2422 1.85352ZM4.93499 6.4178C5.25935 6.44483 5.58372 6.25562 5.78837 6.0162C5.98917 5.76907 6.12046 5.43698 6.08571 5.10103C5.79996 5.11261 5.4447 5.29024 5.24004 5.53738C5.05469 5.74976 4.89637 6.09343 4.93499 6.4178ZM7.27505 9.29461C7.26733 9.28689 6.5182 9.00114 6.51047 8.13616C6.50275 7.41406 7.10128 7.06653 7.12831 7.04722C6.7885 6.54523 6.26334 6.49117 6.08185 6.47958C5.61075 6.45255 5.20915 6.74602 4.98519 6.74602C4.75736 6.74602 4.41755 6.49117 4.04684 6.49889C3.56416 6.50661 3.11236 6.78078 2.86909 7.21713C2.36323 8.08982 2.7378 9.37956 3.22821 10.0901C3.46762 10.4415 3.75723 10.8276 4.13566 10.8122C4.49478 10.7967 4.63765 10.5805 5.07014 10.5805C5.50649 10.5805 5.63005 10.8122 6.00848 10.8083C6.40235 10.8006 6.64563 10.4569 6.8889 10.1055C7.15534 9.70393 7.26733 9.31778 7.27505 9.29461ZM12.5035 7.23257C12.5035 6.20542 11.7891 5.50262 10.7697 5.50262H8.79261V10.7697H9.61125V8.97024H10.7427C11.7775 8.97024 12.5035 8.25973 12.5035 7.23257ZM15.9788 8.14775C15.9788 7.38703 15.3687 6.89662 14.4343 6.89662C13.5654 6.89662 12.9244 7.39476 12.9012 8.07438H13.6388C13.7006 7.75001 14.0018 7.53763 14.4111 7.53763C14.9131 7.53763 15.1911 7.76932 15.1911 8.20181V8.49142L14.1717 8.5532C13.2217 8.61112 12.7082 9.00114 12.7082 9.6769C12.7082 10.3604 13.2372 10.8122 13.9979 10.8122C14.5115 10.8122 14.9864 10.5535 15.2027 10.1403H15.2181V10.7736H15.975V8.14775H15.9788ZM19.9253 6.94682H19.0951L18.1336 10.0592H18.1181L17.1566 6.94682H16.2955L17.6818 10.7813L17.6084 11.013C17.4848 11.4068 17.2802 11.5613 16.9172 11.5613C16.8515 11.5613 16.728 11.5536 16.6778 11.5497V12.183C16.7241 12.1985 16.9288 12.2023 16.9906 12.2023C17.7899 12.2023 18.1645 11.8973 18.4927 10.9744L19.9253 6.94682Z" fill="#333333"/>
</svg>
