<svg width="23" height="27" viewBox="0 0 23 27" fill="none" xmlns="http://www.w3.org/2000/svg">
<path d="M19.1634 25.9167C17.6773 27.3416 16.0547 27.1166 14.4928 26.4417C12.8398 25.7517 11.3234 25.7218 9.57948 26.4417C7.39581 27.3715 6.24331 27.1016 4.93917 25.9167C-2.46107 18.3727 -1.36923 6.88413 7.03186 6.46418C9.07906 6.56917 10.5045 7.57404 11.7025 7.66403C13.4919 7.30408 15.2055 6.26921 17.1162 6.40419C19.406 6.58417 21.1348 7.48406 22.2721 9.10385C17.5408 11.9085 18.663 18.0727 23 19.7975C22.1356 22.0472 21.0135 24.2819 19.1482 25.9317L19.1634 25.9167ZM11.5509 6.3742C11.3234 3.02962 14.0682 0.269966 17.2224 0C17.6621 3.86951 13.6739 6.74915 11.5509 6.3742Z" fill="black"/>
</svg>
