<svg width="89" height="89" viewBox="0 0 89 89" fill="none" xmlns="http://www.w3.org/2000/svg">
<path d="M29.3446 0.184105C24.6375 0.670448 19.1488 2.59846 15.2406 5.11702C2.43939 13.3849 -3.13619 29.1215 1.76198 43.2429C3.08206 47.0989 3.32523 47.8631 3.65525 49.4959C4.71478 54.8109 4.03737 60.3517 1.65776 65.8578C1.55355 66.0836 1.70987 66.1879 2.5436 66.3789C4.03737 66.7089 7.80653 66.6742 9.10924 66.2921C11.3673 65.632 13.2084 64.6593 14.8064 63.2698C15.8312 62.384 16.5955 62.0018 17.3597 62.0018C17.6376 62.0018 18.8014 62.384 19.9304 62.8529C23.7864 64.4857 27.3471 65.2673 31.6026 65.4236C45.8629 65.9447 58.3689 57.7116 63.4928 44.424C64.205 42.5828 65.004 39.4216 65.3166 37.1636C65.664 34.645 65.5945 29.8684 65.1603 27.4367C63.9618 20.7495 61.0438 14.9828 56.3888 10.1194C49.4063 2.80689 39.332 -0.892799 29.3446 0.184105ZM17.3076 28.6178C18.4192 29.191 19.0445 29.8163 19.5483 30.8411C19.9651 31.6748 19.9999 31.9354 19.9304 33.1339C19.8435 34.645 19.5656 35.2877 18.6277 36.2256C17.7245 37.1462 16.6302 37.5804 15.2754 37.5631C13.9379 37.5631 13.1563 37.2678 12.1489 36.3472C10.2904 34.6971 10.0646 31.9006 11.6104 29.9379C12.9131 28.2878 15.4838 27.6972 17.3076 28.6178ZM34.7465 28.6005C37.8035 29.9553 38.4462 34.1066 35.945 36.3472C34.9375 37.2678 34.1559 37.5631 32.8185 37.5631C30.8557 37.5804 29.0493 36.382 28.3719 34.645C27.9203 33.4292 28.0766 31.5359 28.7367 30.459C29.2925 29.5731 30.5257 28.6005 31.4984 28.3052C32.28 28.062 33.8606 28.2183 34.7465 28.6005ZM51.7338 28.4094C53.0365 28.7915 54.3913 30.1463 54.7734 31.4143C54.9297 31.9354 55.0513 32.6128 55.0513 32.9081C55.0513 33.8634 54.565 35.1661 53.9049 35.913C51.4211 38.831 46.8182 37.7889 45.7413 34.0892C44.9076 31.2406 47.183 28.201 50.2052 28.1489C50.5353 28.1315 51.23 28.2531 51.7338 28.4094Z" fill="#E7E7E7"/>
<path d="M71.1 26.4292C71.5863 29.712 71.6906 33.9328 71.3605 36.955C69.4846 54.1855 56.4576 68.0115 39.3314 70.9296C36.6391 71.3986 32.922 71.5896 30.3687 71.3812C29.0834 71.2943 27.9718 71.2075 27.9023 71.2075C27.6591 71.2075 28.5797 72.7013 29.9171 74.5077C31.5151 76.6615 34.3637 79.5101 36.587 81.1602C46.1749 88.2469 58.6635 89.6885 69.5194 84.912C71.7253 83.9393 72.4896 84.0088 74.0702 85.3462C77.5441 88.299 81.7127 89.4627 85.8987 88.6638C86.6283 88.5248 87.2709 88.3685 87.323 88.3164C87.3751 88.2643 87.2536 87.8127 87.0451 87.3089C85.6208 83.8351 85.0997 81.4207 84.9782 77.6342C84.8739 73.9345 85.1866 71.6938 86.3677 67.9768C87.4099 64.7287 87.792 63.2871 88.2089 61.1332C89.6505 53.647 88.8689 47.1161 85.7945 40.6721C83.5539 35.9997 80.5316 32.2306 76.5193 29.0867C75.0255 27.9403 71.4995 25.6997 71.1521 25.6997C71.0653 25.6997 71.0305 25.9949 71.1 26.4292Z" fill="#E7E7E7"/>
</svg>
