<svg width="24" height="16" viewBox="0 0 24 16" fill="none" xmlns="http://www.w3.org/2000/svg">
<path d="M0 0H23.0815V15.3877H0V0ZM11.5408 3.84692C12.561 3.84692 13.5395 4.25222 14.261 4.97366C14.9824 5.6951 15.3877 6.67358 15.3877 7.69385C15.3877 8.71412 14.9824 9.6926 14.261 10.414C13.5395 11.1355 12.561 11.5408 11.5408 11.5408C10.5205 11.5408 9.54202 11.1355 8.82059 10.414C8.09915 9.6926 7.69385 8.71412 7.69385 7.69385C7.69385 6.67358 8.09915 5.6951 8.82059 4.97366C9.54202 4.25222 10.5205 3.84692 11.5408 3.84692ZM5.12923 2.56462C5.12923 3.24479 4.85903 3.89711 4.37807 4.37807C3.89711 4.85903 3.24479 5.12923 2.56462 5.12923V10.2585C3.24479 10.2585 3.89711 10.5287 4.37807 11.0096C4.85903 11.4906 5.12923 12.1429 5.12923 12.8231H17.9523C17.9523 12.1429 18.2225 11.4906 18.7035 11.0096C19.1844 10.5287 19.8368 10.2585 20.5169 10.2585V5.12923C19.8368 5.12923 19.1844 4.85903 18.7035 4.37807C18.2225 3.89711 17.9523 3.24479 17.9523 2.56462H5.12923Z" fill="#333333"/>
</svg>
