<svg width="23" height="23" viewBox="0 0 23 23" fill="none" xmlns="http://www.w3.org/2000/svg">
<path d="M22.7763 9.24772H21.85V9.2H11.5V13.8H17.9992C17.0511 16.4778 14.5032 18.4 11.5 18.4C7.68948 18.4 4.6 15.3105 4.6 11.5C4.6 7.68948 7.68948 4.6 11.5 4.6C13.2589 4.6 14.8591 5.26355 16.0776 6.34742L19.3303 3.09465C17.2764 1.18047 14.5291 0 11.5 0C5.14912 0 0 5.14912 0 11.5C0 17.8509 5.14912 23 11.5 23C17.8509 23 23 17.8509 23 11.5C23 10.7289 22.9207 9.97625 22.7763 9.24772Z" fill="#FFC107"/>
<path d="M1.32422 6.14733L5.10254 8.91825C6.12489 6.3871 8.60084 4.6 11.4983 4.6C13.2572 4.6 14.8574 5.26355 16.0758 6.34742L19.3286 3.09465C17.2747 1.18047 14.5274 0 11.4983 0C7.08112 0 3.25047 2.49377 1.32422 6.14733Z" fill="#FF3D00"/>
<path d="M11.4996 23C14.47 23 17.1691 21.8632 19.2098 20.0146L15.6505 17.0028C14.4573 17.9107 12.999 18.4016 11.4996 18.4C8.50844 18.4 5.96867 16.4927 5.01187 13.8311L1.26172 16.7204C3.16497 20.4447 7.03012 23 11.4996 23Z" fill="#4CAF50"/>
<path d="M22.7763 9.24792H21.85V9.2002H11.5V13.8002H17.9992C17.5457 15.0746 16.7287 16.1883 15.6492 17.0035L15.6509 17.0024L19.2102 20.0142C18.9583 20.2431 23 17.2502 23 11.5002C23 10.7291 22.9206 9.97645 22.7763 9.24792Z" fill="#1976D2"/>
</svg>
