<svg width="16" height="17" viewBox="0 0 16 17" fill="none" xmlns="http://www.w3.org/2000/svg">
<path d="M7.55791 0.0515556C7.47032 0.0849228 7.3285 0.15583 7.24508 0.214226C7.16166 0.272619 5.55999 1.70745 3.69136 3.40924C0.659023 6.16629 0.275288 6.52917 0.145986 6.76274L0 7.02135V11.2132V15.4051L0.137644 15.6846C0.28363 15.9849 0.458813 16.1559 0.771641 16.3102L0.959337 16.4062H3.26175C5.51827 16.4062 5.56416 16.4062 5.67677 16.3186C5.73934 16.2727 5.8311 16.1809 5.87698 16.1184C5.9604 16.0058 5.96458 15.9432 5.98543 13.7576C6.00629 11.5719 6.01046 11.5094 6.09388 11.3968C6.13976 11.3342 6.23152 11.2424 6.29409 11.1966C6.4067 11.1131 6.45676 11.109 7.98753 11.109C9.51829 11.109 9.56835 11.1131 9.68096 11.1966C9.74353 11.2424 9.83529 11.3342 9.88117 11.3968C9.96459 11.5094 9.96877 11.5719 9.98962 13.7576C10.0105 15.9432 10.0146 16.0058 10.0981 16.1184C10.1439 16.1809 10.2357 16.2727 10.2983 16.3186C10.4109 16.4062 10.4568 16.4062 12.6924 16.4062C15.2118 16.4062 15.0908 16.4187 15.4829 16.1309C15.6455 16.0099 15.729 15.9015 15.8374 15.6888L15.9751 15.4051V11.2132V7.02135L15.8374 6.76692C15.7164 6.54168 15.3369 6.18714 12.2378 3.36753C10.0939 1.41965 8.70077 0.185028 8.57981 0.122463C8.33372 -0.00266838 7.804 -0.0402069 7.55791 0.0515556Z" fill="#CFCFCF"/>
</svg>
