<svg width="18" height="21" viewBox="0 0 18 21" fill="none" xmlns="http://www.w3.org/2000/svg">
<path d="M9.29239 19.4567L9.28139 19.4587L9.21039 19.4937L9.19039 19.4977L9.17639 19.4937L9.10539 19.4587C9.09472 19.4553 9.08672 19.457 9.08139 19.4637L9.07739 19.4737L9.06039 19.9017L9.06539 19.9217L9.07539 19.9347L9.17939 20.0087L9.19439 20.0127L9.20639 20.0087L9.31039 19.9347L9.32239 19.9187L9.32639 19.9017L9.30939 19.4747C9.30672 19.464 9.30106 19.458 9.29239 19.4567ZM9.55739 19.3437L9.54439 19.3457L9.35939 19.4387L9.34939 19.4487L9.34639 19.4597L9.36439 19.8897L9.36939 19.9017L9.37739 19.9087L9.57839 20.0017C9.59106 20.005 9.60072 20.0023 9.60739 19.9937L9.61139 19.9797L9.57739 19.3657C9.57406 19.3537 9.56739 19.3463 9.55739 19.3437ZM8.84239 19.3457C8.83798 19.343 8.83272 19.3421 8.82769 19.3432C8.82266 19.3444 8.81825 19.3474 8.81539 19.3517L8.80939 19.3657L8.77539 19.9797C8.77606 19.9917 8.78172 19.9997 8.79239 20.0037L8.80739 20.0017L9.00839 19.9087L9.01839 19.9007L9.02239 19.8897L9.03939 19.4597L9.03639 19.4477L9.02639 19.4377L8.84239 19.3457Z" fill="#C4C4C4"/>
<path d="M8.69873 0C13.503 0 17.3975 3.89442 17.3975 8.69873C17.3975 13.503 13.503 17.3975 8.69873 17.3975C3.89442 17.3975 0 13.503 0 8.69873C0 3.89442 3.89442 0 8.69873 0ZM8.69003 6.95898H7.82886C7.60714 6.95923 7.39389 7.04413 7.23267 7.19633C7.07146 7.34853 6.97444 7.55655 6.96144 7.77788C6.94845 7.99921 7.02046 8.21715 7.16276 8.38717C7.30507 8.55719 7.50692 8.66646 7.72708 8.69264L7.82886 8.69873V13.0394C7.82886 13.4917 8.17159 13.8658 8.61174 13.9127L8.70743 13.918H9.13367C9.31661 13.918 9.4949 13.8603 9.64318 13.7531C9.79146 13.646 9.90219 13.4948 9.9596 13.3211C10.017 13.1474 10.0182 12.96 9.96301 12.7856C9.90781 12.6112 9.79902 12.4586 9.65211 12.3496L9.5686 12.2948V7.83756C9.5686 7.38522 9.22587 7.01118 8.78572 6.9642L8.69003 6.95898ZM8.69873 4.34937C8.46803 4.34937 8.24677 4.44101 8.08364 4.60415C7.9205 4.76728 7.82886 4.98853 7.82886 5.21924C7.82886 5.44994 7.9205 5.6712 8.08364 5.83433C8.24677 5.99746 8.46803 6.08911 8.69873 6.08911C8.92943 6.08911 9.15069 5.99746 9.31382 5.83433C9.47696 5.6712 9.5686 5.44994 9.5686 5.21924C9.5686 4.98853 9.47696 4.76728 9.31382 4.60415C9.15069 4.44101 8.92943 4.34937 8.69873 4.34937Z" fill="#C4C4C4"/>
</svg>
