<svg width="17" height="17" viewBox="0 0 17 17" fill="none" xmlns="http://www.w3.org/2000/svg">
<path d="M3.27727 0.0844903C3.03548 0.251888 2.99828 0.337447 2.98712 0.78756L2.97224 1.19303H2.25801C1.73722 1.19303 1.48426 1.20791 1.3243 1.24883C0.784909 1.39019 0.334795 1.80311 0.111598 2.36482C0.0260396 2.58429 0.0223197 2.61405 0.0111598 3.97183L0 5.35938H8.33268H16.6691V4.06483C16.6691 2.63637 16.6542 2.52106 16.4384 2.11558C16.2971 1.84775 15.9995 1.54271 15.7503 1.40879C15.4229 1.23023 15.196 1.19303 14.4148 1.19303H13.7006L13.6857 0.78756C13.6782 0.445325 13.6634 0.363486 13.5964 0.274208C13.3248 -0.0903473 12.871 -0.0903473 12.5995 0.274208C12.5325 0.363486 12.5176 0.445325 12.5102 0.78756L12.4953 1.19303H8.3364H4.1775L4.16262 0.78756C4.15518 0.445325 4.1403 0.363486 4.07334 0.274208C3.94314 0.0956502 3.76831 0.00265169 3.57487 0.00265169C3.45583 0.00265169 3.36283 0.0286913 3.27727 0.0844903ZM4.17006 2.14162C4.17006 3.02697 4.16634 3.10509 4.09566 3.24273C3.8985 3.62588 3.36655 3.67052 3.09872 3.32084L2.99828 3.19065L2.98712 2.18998L2.97596 1.19303H3.57487H4.17006V2.14162ZM13.6931 2.14162C13.6931 3.02697 13.6894 3.10509 13.6187 3.24273C13.4216 3.62588 12.8896 3.67052 12.6218 3.32084L12.5213 3.19065L12.5102 2.18998L12.499 1.19303H13.0979H13.6931V2.14162Z" fill="#003366"/>
<path d="M0.00390625 10.7878C0.00390625 13.5108 0.018786 15.0917 0.0411057 15.2219C0.171304 15.9138 0.770215 16.5016 1.46957 16.6281C1.78204 16.6839 14.8911 16.6839 15.2036 16.6281C15.8658 16.509 16.4312 15.9845 16.6023 15.3335C16.6581 15.1103 16.6655 14.7309 16.6655 10.8175L16.6693 6.55074H8.33659H0.00390625V10.7878Z" fill="#003366"/>
</svg>
